<?xml version="1.0" encoding="UTF-8" standalone="no"?>
<!DOCTYPE svg PUBLIC "-//W3C//DTD SVG 1.1//EN"
 "http://www.w3.org/Graphics/SVG/1.1/DTD/svg11.dtd">
<!-- Generated by graphviz version 15.1.1 (20260805.0921)
 -->
<!-- Title: profile Pages: 1 -->
<svg width="746pt" height="226pt"
 viewBox="0.00 0.00 746.00 226.00" xmlns="http://www.w3.org/2000/svg" xmlns:xlink="http://www.w3.org/1999/xlink">
<g id="graph0" class="graph" transform="scale(1 1) rotate(0) translate(25.2 201.24)">
<title>profile</title>
<!-- entry -->
<g id="node1" class="node">
<title>entry</title>
<path fill="#f3f6fb" stroke="#bdcbdd" d="M88.68,-110.79C88.68,-110.79 12,-110.79 12,-110.79 6,-110.79 0,-104.79 0,-98.79 0,-98.79 0,-77.25 0,-77.25 0,-71.25 6,-65.25 12,-65.25 12,-65.25 88.68,-65.25 88.68,-65.25 94.68,-65.25 100.68,-71.25 100.68,-77.25 100.68,-77.25 100.68,-98.79 100.68,-98.79 100.68,-104.79 94.68,-110.79 88.68,-110.79"/>
<text xml:space="preserve" text-anchor="middle" x="50.34" y="-84.07" font-family="Malgun Gothic,Arial,sans-serif" font-size="16.00" fill="#17243b">진입 함수</text>
</g>
<!-- parse -->
<g id="node2" class="node">
<title>parse</title>
<path fill="#f3f6fb" stroke="#bdcbdd" d="M287.11,-122.04C287.11,-122.04 194.68,-122.04 194.68,-122.04 188.68,-122.04 182.68,-116.04 182.68,-110.04 182.68,-110.04 182.68,-66 182.68,-66 182.68,-60 188.68,-54 194.68,-54 194.68,-54 287.11,-54 287.11,-54 293.11,-54 299.11,-60 299.11,-66 299.11,-66 299.11,-110.04 299.11,-110.04 299.11,-116.04 293.11,-122.04 287.11,-122.04"/>
<text xml:space="preserve" text-anchor="middle" x="240.9" y="-95.32" font-family="Malgun Gothic,Arial,sans-serif" font-size="16.00" fill="#17243b">파싱</text>
<text xml:space="preserve" text-anchor="middle" x="240.9" y="-72.82" font-family="Malgun Gothic,Arial,sans-serif" font-size="16.00" fill="#17243b">측정값 입력</text>
</g>
<!-- entry&#45;&gt;parse -->
<g id="edge1" class="edge">
<title>entry&#45;&gt;parse</title>
<path fill="none" stroke="#7186a4" stroke-width="1.5" d="M100.88,-88.02C122.84,-88.02 149.02,-88.02 172.7,-88.02"/>
<polygon fill="#7186a4" stroke="#7186a4" stroke-width="1.5" points="172.56,-90.65 180.06,-88.02 172.56,-85.4 172.56,-90.65"/>
<text xml:space="preserve" text-anchor="middle" x="141.68" y="-93.12" font-family="Malgun Gothic,Arial,sans-serif" font-size="12.00" fill="#52617a">호출</text>
</g>
<!-- compute -->
<g id="node3" class="node">
<title>compute</title>
<path fill="#f3f6fb" stroke="#bdcbdd" d="M485.54,-122.04C485.54,-122.04 393.11,-122.04 393.11,-122.04 387.11,-122.04 381.11,-116.04 381.11,-110.04 381.11,-110.04 381.11,-66 381.11,-66 381.11,-60 387.11,-54 393.11,-54 393.11,-54 485.54,-54 485.54,-54 491.54,-54 497.54,-60 497.54,-66 497.54,-66 497.54,-110.04 497.54,-110.04 497.54,-116.04 491.54,-122.04 485.54,-122.04"/>
<text xml:space="preserve" text-anchor="middle" x="439.33" y="-95.32" font-family="Malgun Gothic,Arial,sans-serif" font-size="16.00" fill="#17243b">계산</text>
<text xml:space="preserve" text-anchor="middle" x="439.33" y="-72.82" font-family="Malgun Gothic,Arial,sans-serif" font-size="16.00" fill="#17243b">측정값 입력</text>
</g>
<!-- parse&#45;&gt;compute -->
<g id="edge2" class="edge">
<title>parse&#45;&gt;compute</title>
<path fill="none" stroke="#7186a4" stroke-width="1.5" d="M299.5,-88.02C321.99,-88.02 347.92,-88.02 371.24,-88.02"/>
<polygon fill="#7186a4" stroke="#7186a4" stroke-width="1.5" points="370.95,-90.65 378.45,-88.02 370.95,-85.4 370.95,-90.65"/>
<text xml:space="preserve" text-anchor="middle" x="340.11" y="-93.12" font-family="Malgun Gothic,Arial,sans-serif" font-size="12.00" fill="#52617a">호출</text>
</g>
<!-- output -->
<g id="node4" class="node">
<title>output</title>
<path fill="#f3f6fb" stroke="#bdcbdd" d="M683.97,-176.04C683.97,-176.04 591.54,-176.04 591.54,-176.04 585.54,-176.04 579.54,-170.04 579.54,-164.04 579.54,-164.04 579.54,-120 579.54,-120 579.54,-114 585.54,-108 591.54,-108 591.54,-108 683.97,-108 683.97,-108 689.97,-108 695.97,-114 695.97,-120 695.97,-120 695.97,-164.04 695.97,-164.04 695.97,-170.04 689.97,-176.04 683.97,-176.04"/>
<text xml:space="preserve" text-anchor="middle" x="637.76" y="-149.32" font-family="Malgun Gothic,Arial,sans-serif" font-size="16.00" fill="#17243b">출력</text>
<text xml:space="preserve" text-anchor="middle" x="637.76" y="-126.82" font-family="Malgun Gothic,Arial,sans-serif" font-size="16.00" fill="#17243b">측정값 입력</text>
</g>
<!-- compute&#45;&gt;output -->
<g id="edge3" class="edge">
<title>compute&#45;&gt;output</title>
<path fill="none" stroke="#7186a4" stroke-width="1.5" d="M497.93,-103.86C520.52,-110.07 546.58,-117.23 569.98,-123.66"/>
<polygon fill="#7186a4" stroke="#7186a4" stroke-width="1.5" points="569.03,-126.12 576.96,-125.58 570.42,-121.06 569.03,-126.12"/>
<text xml:space="preserve" text-anchor="middle" x="538.54" y="-123.35" font-family="Malgun Gothic,Arial,sans-serif" font-size="12.00" fill="#52617a">호출</text>
</g>
<!-- cache -->
<g id="node5" class="node">
<title>cache</title>
<path fill="#edf3ff" stroke="#2855c7" d="M683.97,-68.04C683.97,-68.04 591.54,-68.04 591.54,-68.04 585.54,-68.04 579.54,-62.04 579.54,-56.04 579.54,-56.04 579.54,-12 579.54,-12 579.54,-6 585.54,0 591.54,0 591.54,0 683.97,0 683.97,0 689.97,0 695.97,-6 695.97,-12 695.97,-12 695.97,-56.04 695.97,-56.04 695.97,-62.04 689.97,-68.04 683.97,-68.04"/>
<text xml:space="preserve" text-anchor="middle" x="637.76" y="-41.32" font-family="Malgun Gothic,Arial,sans-serif" font-size="16.00" fill="#17243b">캐시 확인</text>
<text xml:space="preserve" text-anchor="middle" x="637.76" y="-18.82" font-family="Malgun Gothic,Arial,sans-serif" font-size="16.00" fill="#17243b">측정값 입력</text>
</g>
<!-- compute&#45;&gt;cache -->
<g id="edge4" class="edge">
<title>compute&#45;&gt;cache</title>
<path fill="none" stroke="#7186a4" stroke-width="1.5" d="M497.93,-72.18C520.52,-65.97 546.58,-58.81 569.98,-52.38"/>
<polygon fill="#7186a4" stroke="#7186a4" stroke-width="1.5" points="570.42,-54.98 576.96,-50.46 569.03,-49.92 570.42,-54.98"/>
<text xml:space="preserve" text-anchor="middle" x="538.54" y="-69.35" font-family="Malgun Gothic,Arial,sans-serif" font-size="12.00" fill="#52617a">호출</text>
</g>
</g>
</svg>
