<?xml version="1.0" encoding="UTF-8" standalone="no"?>
<!DOCTYPE svg PUBLIC "-//W3C//DTD SVG 1.1//EN"
 "http://www.w3.org/Graphics/SVG/1.1/DTD/svg11.dtd">
<!-- Generated by graphviz version 15.1.1 (20260805.0921)
 -->
<!-- Title: contract Pages: 1 -->
<svg width="572pt" height="292pt"
 viewBox="0.00 0.00 572.00 292.00" xmlns="http://www.w3.org/2000/svg" xmlns:xlink="http://www.w3.org/1999/xlink">
<g id="graph0" class="graph" transform="scale(1 1) rotate(0) translate(25.2 267.2)">
<title>contract</title>
<polygon fill="white" stroke="none" points="-25.2,25.2 -25.2,-267.2 546.7,-267.2 546.7,25.2 -25.2,25.2"/>
<!-- source -->
<g id="node1" class="node">
<title>source</title>
<polygon fill="#edf3ff" stroke="none" points="0,-181.5 0,-242 190,-242 190,-181.5 0,-181.5"/>
<polygon fill="none" stroke="#bdcbdd" points="0,-181.5 0,-242 190,-242 190,-181.5 0,-181.5"/>
<text xml:space="preserve" text-anchor="start" x="71.38" y="-208.8" font-family="Malgun Gothic,Arial,sans-serif" font-weight="bold" font-size="16.00" fill="#17243b">원자료</text>
<polygon fill="none" stroke="#bdcbdd" points="0,-121 0,-181.5 190,-181.5 190,-121 0,-121"/>
<text xml:space="preserve" text-anchor="start" x="19" y="-144.5" font-family="Malgun Gothic,Arial,sans-serif" font-size="16.00" fill="#17243b">기준일</text>
<polygon fill="none" stroke="#bdcbdd" points="0,-60.5 0,-121 190,-121 190,-60.5 0,-60.5"/>
<text xml:space="preserve" text-anchor="start" x="19" y="-84" font-family="Malgun Gothic,Arial,sans-serif" font-size="16.00" fill="#17243b">측정값 · 단위</text>
<polygon fill="none" stroke="#bdcbdd" points="0,0 0,-60.5 190,-60.5 190,0 0,0"/>
<text xml:space="preserve" text-anchor="start" x="19" y="-23.5" font-family="Malgun Gothic,Arial,sans-serif" font-size="16.00" fill="#17243b">결측 여부</text>
</g>
<!-- rules -->
<g id="node2" class="node">
<title>rules</title>
<polygon fill="#edf3ff" stroke="none" points="331.5,-181.5 331.5,-242 521.5,-242 521.5,-181.5 331.5,-181.5"/>
<polygon fill="none" stroke="#bdcbdd" points="331.5,-181.5 331.5,-242 521.5,-242 521.5,-181.5 331.5,-181.5"/>
<text xml:space="preserve" text-anchor="start" x="392" y="-208.8" font-family="Malgun Gothic,Arial,sans-serif" font-weight="bold" font-size="16.00" fill="#17243b">검증 규칙</text>
<polygon fill="none" stroke="#bdcbdd" points="331.5,-121 331.5,-181.5 521.5,-181.5 521.5,-121 331.5,-121"/>
<text xml:space="preserve" text-anchor="start" x="350.5" y="-144.5" font-family="Malgun Gothic,Arial,sans-serif" font-size="16.00" fill="#17243b">오래된 값 구분</text>
<polygon fill="none" stroke="#bdcbdd" points="331.5,-60.5 331.5,-121 521.5,-121 521.5,-60.5 331.5,-60.5"/>
<text xml:space="preserve" text-anchor="start" x="350.5" y="-84" font-family="Malgun Gothic,Arial,sans-serif" font-size="16.00" fill="#17243b">단위 일치 확인</text>
<polygon fill="none" stroke="#bdcbdd" points="331.5,0 331.5,-60.5 521.5,-60.5 521.5,0 331.5,0"/>
<text xml:space="preserve" text-anchor="start" x="350.5" y="-23.5" font-family="Malgun Gothic,Arial,sans-serif" font-size="16.00" fill="#17243b">누락값 분리</text>
</g>
<!-- source&#45;&gt;rules -->
<g id="edge1" class="edge">
<title>source:e&#45;&gt;rules:w</title>
<path fill="none" stroke="#2855c7" stroke-width="1.7" d="M190,-151.25C249.33,-151.25 266.68,-151.25 321.25,-151.25"/>
<polygon fill="#2855c7" stroke="#2855c7" stroke-width="1.7" points="320.93,-154.05 328.93,-151.25 320.93,-148.45 320.93,-154.05"/>
<text xml:space="preserve" text-anchor="middle" x="260.75" y="-156.9" font-family="Malgun Gothic,Arial,sans-serif" font-size="13.00" fill="#2855c7">시점 대조</text>
</g>
<!-- source&#45;&gt;rules -->
<g id="edge2" class="edge">
<title>source:e&#45;&gt;rules:w</title>
<path fill="none" stroke="#2855c7" stroke-width="1.7" d="M190,-90.75C249.33,-90.75 266.68,-90.75 321.25,-90.75"/>
<polygon fill="#2855c7" stroke="#2855c7" stroke-width="1.7" points="320.93,-93.55 328.93,-90.75 320.93,-87.95 320.93,-93.55"/>
<text xml:space="preserve" text-anchor="middle" x="260.75" y="-96.4" font-family="Malgun Gothic,Arial,sans-serif" font-size="13.00" fill="#2855c7">정의 대조</text>
</g>
<!-- source&#45;&gt;rules -->
<g id="edge3" class="edge">
<title>source:e&#45;&gt;rules:w</title>
<path fill="none" stroke="#2855c7" stroke-width="1.7" d="M190,-30.25C249.33,-30.25 266.68,-30.25 321.25,-30.25"/>
<polygon fill="#2855c7" stroke="#2855c7" stroke-width="1.7" points="320.93,-33.05 328.93,-30.25 320.93,-27.45 320.93,-33.05"/>
<text xml:space="preserve" text-anchor="middle" x="260.75" y="-35.9" font-family="Malgun Gothic,Arial,sans-serif" font-size="13.00" fill="#2855c7">상태 대조</text>
</g>
</g>
</svg>
